<svg focusable="false" aria-hidden="true" viewBox="0 0 20 20" fill="none" xmlns="http://www.w3.org/2000/svg">
<path d="M9.57488 5.67147V9.14973L12.5894 10.9275L13.1304 10.0773L10.657 8.60867V5.67147H9.57488ZM18 16.9565L17.2271 17.7294L15.2947 15.7971L13.3623 17.7294L12.5894 16.9565L14.5217 15.0241L12.5894 13.0918L13.3623 12.3188L15.2174 14.1739L17.1498 12.3188L17.9227 13.0918L15.9903 14.9468L18 16.9565ZM4.70531 11.2367V11.1594L2 8.45408H4.08696C4.08696 5.05312 6.86957 2.27051 10.2705 2.27051C13.6715 2.27051 16.4541 5.05312 16.4541 8.45408C16.4541 9.99998 15.913 11.3913 14.9082 12.4734L13.9807 11.5459C14.6763 10.6956 15.0628 9.6135 15.0628 8.45408C15.0628 5.74877 12.8986 3.58452 10.1932 3.58452C7.48792 3.58452 5.40097 5.74877 5.40097 8.45408H7.48792L4.70531 11.2367ZM12.3575 14.2512C11.6618 14.4831 10.9662 14.6377 10.2705 14.6377C8.49275 14.6377 6.94686 13.942 5.94203 12.7826L6.86957 11.855C7.71981 12.7826 8.95652 13.3236 10.2705 13.3236C10.5797 13.3236 10.9662 13.3236 11.2754 13.2464L12.3575 14.2512Z" fill="currentColor"/>
</svg>
